<svg width="32" height="32" viewBox="0 0 32 32" xmlns="http://www.w3.org/2000/svg">
  <!-- Background circle with gradient effect -->
  <circle cx="16" cy="16" r="15" fill="#1e3a8a" stroke="#ffd700" stroke-width="1"/>
  
  <!-- Inner circle for depth -->
  <circle cx="16" cy="16" r="12" fill="#3b82f6" stroke="#32cd32" stroke-width="0.8"/>
  
  <!-- Shield shape with modern design -->
  <path d="M16 6 L22 8 L22 16 L16 24 L10 16 L10 8 Z" fill="#ffd700" stroke="#1e3a8a" stroke-width="0.5"/>
  
  <!-- Lightning bolt with better design -->
  <path d="M16 12 L14 16 L17 16 L15 20 L18 16 L16 16 Z" fill="#1e3a8a"/>
  
  <!-- Modern circuit elements -->
  <rect x="13" y="13" width="1.5" height="1.5" fill="#32cd32" rx="0.5"/>
  <rect x="17.5" y="13" width="1.5" height="1.5" fill="#32cd32" rx="0.5"/>
  <rect x="13" y="18.5" width="1.5" height="1.5" fill="#32cd32" rx="0.5"/>
  <rect x="17.5" y="18.5" width="1.5" height="1.5" fill="#32cd32" rx="0.5"/>
  
  <!-- Connection lines -->
  <line x1="14.5" y1="13.75" x2="16" y2="13.75" stroke="#32cd32" stroke-width="0.5"/>
  <line x1="16" y1="13.75" x2="17.5" y2="13.75" stroke="#32cd32" stroke-width="0.5"/>
  <line x1="14.5" y1="19.25" x2="16" y2="19.25" stroke="#32cd32" stroke-width="0.5"/>
  <line x1="16" y1="19.25" x2="17.5" y2="19.25" stroke="#32cd32" stroke-width="0.5"/>
</svg>

