<svg width="32" height="32" viewBox="0 0 32 32" xmlns="http://www.w3.org/2000/svg">
  <defs>
    <linearGradient id="shieldGradient" x1="0%" y1="0%" x2="100%" y2="100%">
      <stop offset="0%" style="stop-color:#1e3a8a;stop-opacity:1" />
      <stop offset="100%" style="stop-color:#3b82f6;stop-opacity:1" />
    </linearGradient>
    <linearGradient id="energyGradient" x1="0%" y1="0%" x2="100%" y2="100%">
      <stop offset="0%" style="stop-color:#a4c639;stop-opacity:1" />
      <stop offset="100%" style="stop-color:#32cd32;stop-opacity:1" />
    </linearGradient>
  </defs>
  
  <!-- Outer protective ring -->
  <circle cx="16" cy="16" r="15" fill="none" stroke="#a4c639" stroke-width="1.5" opacity="0.8"/>
  
  <!-- Main shield background -->
  <path d="M16 4 L24 7 L24 16 L16 26 L8 16 L8 7 Z" fill="url(#shieldGradient)" stroke="#a4c639" stroke-width="1"/>
  
  <!-- Inner shield for depth -->
  <path d="M16 6 L22 8 L22 15 L16 23 L10 15 L10 8 Z" fill="none" stroke="#ffffff" stroke-width="0.8" opacity="0.7"/>
  
  <!-- Renewable energy symbol (simplified wind turbine) -->
  <g transform="translate(16, 12)">
    <!-- Wind turbine blades -->
    <path d="M0 -4 L-3 2 L3 2 Z" fill="url(#energyGradient)" opacity="0.9"/>
    <path d="M0 -4 L3 2 L0 4 L-3 2 Z" fill="url(#energyGradient)" opacity="0.7"/>
    <path d="M0 -4 L0 4 L-3 2 Z" fill="url(#energyGradient)" opacity="0.5"/>
    
    <!-- Central hub -->
    <circle cx="0" cy="0" r="1" fill="#ffffff"/>
  </g>
  
  <!-- Electrical protection elements (simplified) -->
  <g transform="translate(16, 20)">
    <!-- Circuit protection symbol -->
    <rect x="-2" y="-1" width="4" height="2" fill="none" stroke="#a4c639" stroke-width="1" rx="0.3"/>
    <line x1="-1" y1="-1" x2="-1" y2="1" stroke="#a4c639" stroke-width="1"/>
    <line x1="1" y1="-1" x2="1" y2="1" stroke="#a4c639" stroke-width="1"/>
    
    <!-- Connection points -->
    <circle cx="-3" cy="0" r="0.5" fill="#a4c639"/>
    <circle cx="3" cy="0" r="0.5" fill="#a4c639"/>
  </g>
  
  <!-- Australian identity element (Southern Cross - simplified) -->
  <g transform="translate(16, 8)" opacity="0.6">
    <circle cx="-3" cy="-1" r="0.4" fill="#a4c639"/>
    <circle cx="3" cy="1" r="0.4" fill="#a4c639"/>
    <circle cx="2" cy="-1" r="0.3" fill="#a4c639"/>
  </g>
</svg>
