<svg viewBox="0 0 32 32" xmlns="http://www.w3.org/2000/svg">
  <defs>
    <!-- Green gradient for accent elements -->
    <linearGradient id="greenGradient" x1="0%" y1="0%" x2="100%" y2="100%">
      <stop offset="0%" style="stop-color:#8FD14F"/>
      <stop offset="50%" style="stop-color:#6BC023"/>
      <stop offset="100%" style="stop-color:#5AA818"/>
    </linearGradient>
    
    <!-- Bright green for icon -->
    <linearGradient id="brightGreen" x1="0%" y1="0%" x2="0%" y2="100%">
      <stop offset="0%" style="stop-color:#9FE15F"/>
      <stop offset="100%" style="stop-color:#6BC023"/>
    </linearGradient>
  </defs>
  
  <!-- Centered shield container - scaled for 32x32 -->
  <g transform="translate(16, 16)">
    <!-- Hexagon container - simplified and scaled -->
    <path d="M 0,-8 L 7,-4 L 7,4 L 0,8 L -7,4 L -7,-4 Z" 
          fill="#1a1a1a" 
          stroke="url(#greenGradient)" 
          stroke-width="1"/>
    
    <!-- Simple shield with lock - scaled down -->
    <g transform="scale(0.45)">
      <!-- Shield shape -->
      <path d="M 0,-10 C -6,-10 -8,-8 -8,-4 L -8,4 C -8,7 -5,9 0,11 C 5,9 8,7 8,4 L 8,-4 C 8,-8 6,-10 0,-10 Z" 
            fill="#2a2a2a" 
            stroke="url(#brightGreen)" 
            stroke-width="1.5"/>
      
      <!-- Simple lock icon -->
      <rect x="-3" y="-1" width="6" height="5" rx="0.5" fill="url(#brightGreen)"/>
      <path d="M -2.5,-1 L -2.5,-3.5 C -2.5,-5.5 -1,-6.5 0,-6.5 C 1,-6.5 2.5,-5.5 2.5,-3.5 L 2.5,-1" 
            fill="none" 
            stroke="url(#brightGreen)" 
            stroke-width="1"
            stroke-linecap="round"/>
      <!-- Keyhole -->
      <circle cx="0" cy="1.5" r="1" fill="#1a1a1a"/>
    </g>
  </g>
</svg>
