<svg width="32" height="32" viewBox="0 0 32 32" xmlns="http://www.w3.org/2000/svg">
  <defs>
    <linearGradient id="shieldGradientDark" x1="0%" y1="0%" x2="100%" y2="100%">
      <stop offset="0%" style="stop-color:#ffffff;stop-opacity:1" />
      <stop offset="100%" style="stop-color:#a4c639;stop-opacity:1" />
    </linearGradient>
    <linearGradient id="energyGradientDark" x1="0%" y1="0%" x2="100%" y2="100%">
      <stop offset="0%" style="stop-color:#ffffff;stop-opacity:1" />
      <stop offset="100%" style="stop-color:#a4c639;stop-opacity:1" />
    </linearGradient>
    <filter id="glow" x="-50%" y="-50%" width="200%" height="200%">
      <feGaussianBlur stdDeviation="1" result="coloredBlur"/>
      <feMerge> 
        <feMergeNode in="coloredBlur"/>
        <feMergeNode in="SourceGraphic"/>
      </feMerge>
    </filter>
  </defs>
  
  <!-- Outer protective ring with white outline -->
  <circle cx="16" cy="16" r="15" fill="none" stroke="#ffffff" stroke-width="1.5" opacity="0.9"/>
  <circle cx="16" cy="16" r="15" fill="none" stroke="#a4c639" stroke-width="1" opacity="0.8"/>
  
  <!-- Background circle for contrast -->
  <circle cx="16" cy="16" r="14" fill="rgba(255,255,255,0.1)" stroke="rgba(255,255,255,0.2)" stroke-width="0.5"/>
  
  <!-- Main shield background -->
  <path d="M16 4 L24 7 L24 16 L16 26 L8 16 L8 7 Z" fill="url(#shieldGradientDark)" stroke="#ffffff" stroke-width="1" filter="url(#glow)"/>
  
  <!-- Inner shield for depth -->
  <path d="M16 6 L22 8 L22 15 L16 23 L10 15 L10 8 Z" fill="none" stroke="#ffffff" stroke-width="0.8" opacity="0.8"/>
  
  <!-- Renewable energy symbol -->
  <g transform="translate(16, 12)">
    <!-- Wind turbine blades with white highlights -->
    <path d="M0 -4 L-3 2 L3 2 Z" fill="url(#energyGradientDark)" opacity="0.95" stroke="#ffffff" stroke-width="0.3"/>
    <path d="M0 -4 L3 2 L0 4 L-3 2 Z" fill="url(#energyGradientDark)" opacity="0.8" stroke="#ffffff" stroke-width="0.3"/>
    <path d="M0 -4 L0 4 L-3 2 Z" fill="url(#energyGradientDark)" opacity="0.6" stroke="#ffffff" stroke-width="0.3"/>
    
    <!-- Central hub -->
    <circle cx="0" cy="0" r="1" fill="#ffffff" stroke="#a4c639" stroke-width="0.5"/>
  </g>
  
  <!-- Electrical protection elements -->
  <g transform="translate(16, 20)">
    <!-- Circuit protection symbol -->
    <rect x="-2" y="-1" width="4" height="2" fill="none" stroke="#ffffff" stroke-width="1" rx="0.3"/>
    <rect x="-2" y="-1" width="4" height="2" fill="none" stroke="#a4c639" stroke-width="0.8" rx="0.3"/>
    <line x1="-1" y1="-1" x2="-1" y2="1" stroke="#ffffff" stroke-width="1"/>
    <line x1="1" y1="-1" x2="1" y2="1" stroke="#ffffff" stroke-width="1"/>
    
    <!-- Connection points -->
    <circle cx="-3" cy="0" r="0.8" fill="#ffffff" stroke="#a4c639" stroke-width="0.5"/>
    <circle cx="3" cy="0" r="0.8" fill="#ffffff" stroke="#a4c639" stroke-width="0.5"/>
  </g>
  
  <!-- Australian identity element -->
  <g transform="translate(16, 8)" opacity="0.8">
    <circle cx="-3" cy="-1" r="0.6" fill="#ffffff" stroke="#a4c639" stroke-width="0.3"/>
    <circle cx="3" cy="1" r="0.6" fill="#ffffff" stroke="#a4c639" stroke-width="0.3"/>
    <circle cx="2" cy="-1" r="0.4" fill="#ffffff" stroke="#a4c639" stroke-width="0.3"/>
  </g>
</svg>
