<svg viewBox="0 0 32 32" xmlns="http://www.w3.org/2000/svg">
  <defs>
    <!-- Medium green gradient for balanced visibility -->
    <linearGradient id="mediumGreenGradient" x1="0%" y1="0%" x2="100%" y2="100%">
      <stop offset="0%" style="stop-color:#8FD14F"/>
      <stop offset="50%" style="stop-color:#6BC023"/>
      <stop offset="100%" style="stop-color:#5AA818"/>
    </linearGradient>
    
    <!-- Bright green for icon -->
    <linearGradient id="brightGreen" x1="0%" y1="0%" x2="0%" y2="100%">
      <stop offset="0%" style="stop-color:#9FE15F"/>
      <stop offset="100%" style="stop-color:#6BC023"/>
    </linearGradient>
    
    <!-- Medium background gradient -->
    <linearGradient id="mediumBgGradient" x1="0%" y1="0%" x2="100%" y2="100%">
      <stop offset="0%" style="stop-color:#2a2a2a"/>
      <stop offset="100%" style="stop-color:#1a1a1a"/>
    </linearGradient>
  </defs>
  
  <!-- Medium background for balanced contrast -->
  <rect x="2" y="2" width="28" height="28" rx="6" ry="6" fill="url(#mediumBgGradient)" stroke="url(#mediumGreenGradient)" stroke-width="2"/>
  
  <!-- Centered shield container - scaled for 32x32 -->
  <g transform="translate(16, 16)">
    <!-- Hexagon container - with medium background -->
    <path d="M 0,-8 L 7,-4 L 7,4 L 0,8 L -7,4 L -7,-4 Z" 
          fill="url(#mediumBgGradient)" 
          stroke="url(#mediumGreenGradient)" 
          stroke-width="2"/>
    
    <!-- Simple shield with lock - with balanced colors -->
    <g transform="scale(0.45)">
      <!-- Shield shape with medium background -->
      <path d="M 0,-10 C -6,-10 -8,-8 -8,-4 L -8,4 C -8,7 -5,9 0,11 C 5,9 8,7 8,4 L 8,-4 C 8,-8 6,-10 0,-10 Z" 
            fill="url(#mediumBgGradient)" 
            stroke="url(#brightGreen)" 
            stroke-width="2"/>
      
      <!-- Simple lock icon with bright green -->
      <rect x="-3" y="-1" width="6" height="5" rx="0.5" fill="url(#brightGreen)"/>
      <path d="M -2.5,-1 L -2.5,-3.5 C -2.5,-5.5 -1,-6.5 0,-6.5 C 1,-6.5 2.5,-5.5 2.5,-3.5 L 2.5,-1" 
            fill="none" 
            stroke="url(#brightGreen)" 
            stroke-width="1.5"
            stroke-linecap="round"/>
      <!-- Keyhole with medium background -->
      <circle cx="0" cy="1.5" r="1" fill="url(#mediumBgGradient)"/>
    </g>
  </g>
</svg>
