<svg width="32" height="32" viewBox="0 0 32 32" xmlns="http://www.w3.org/2000/svg">
  <defs>
    <linearGradient id="shieldGradientCrisp" x1="0%" y1="0%" x2="100%" y2="100%">
      <stop offset="0%" style="stop-color:#ffffff;stop-opacity:1" />
      <stop offset="100%" style="stop-color:#a4c639;stop-opacity:1" />
    </linearGradient>
  </defs>
  
  <!-- Outer protective ring - clean and sharp -->
  <circle cx="16" cy="16" r="15" fill="none" stroke="#ffffff" stroke-width="2"/>
  <circle cx="16" cy="16" r="15" fill="none" stroke="#a4c639" stroke-width="1.5"/>
  
  <!-- Background circle for contrast -->
  <circle cx="16" cy="16" r="14" fill="rgba(0,0,0,0.5)" stroke="rgba(255,255,255,0.5)" stroke-width="0.8"/>
  
  <!-- Main shield background - sharp and clear -->
  <path d="M16 4 L24 7 L24 16 L16 26 L8 16 L8 7 Z" fill="url(#shieldGradientCrisp)" stroke="#000000" stroke-width="1.2"/>
  
  <!-- Inner shield for depth - clean lines -->
  <path d="M16 6 L22 8 L22 15 L16 23 L10 15 L10 8 Z" fill="none" stroke="#000000" stroke-width="1"/>
  
  <!-- Renewable energy symbol - clearly defined -->
  <g transform="translate(16, 12)">
    <!-- Wind turbine blades - sharp and distinct -->
    <path d="M0 -4 L-3 2 L3 2 Z" fill="#ffffff" stroke="#000000" stroke-width="0.8"/>
    <path d="M0 -4 L3 2 L0 4 L-3 2 Z" fill="#a4c639" stroke="#000000" stroke-width="0.8"/>
    <path d="M0 -4 L0 4 L-3 2 Z" fill="#ffffff" stroke="#000000" stroke-width="0.8"/>
    
    <!-- Central hub - clearly defined -->
    <circle cx="0" cy="0" r="1" fill="#000000" stroke="#ffffff" stroke-width="0.8"/>
  </g>
  
  <!-- Electrical protection elements - sharp and visible -->
  <g transform="translate(16, 20)">
    <!-- Circuit protection symbol - clear definition -->
    <rect x="-2" y="-1" width="4" height="2" fill="none" stroke="#000000" stroke-width="1.2" rx="0.3"/>
    <rect x="-2" y="-1" width="4" height="2" fill="none" stroke="#ffffff" stroke-width="1" rx="0.3"/>
    <line x1="-1" y1="-1" x2="-1" y2="1" stroke="#000000" stroke-width="1.2"/>
    <line x1="1" y1="-1" x2="1" y2="1" stroke="#000000" stroke-width="1.2"/>
    
    <!-- Connection points - clearly visible -->
    <circle cx="-3" cy="0" r="0.8" fill="#000000" stroke="#ffffff" stroke-width="0.8"/>
    <circle cx="3" cy="0" r="0.8" fill="#000000" stroke="#ffffff" stroke-width="0.8"/>
  </g>
  
  <!-- Australian identity element - Southern Cross - clearly defined -->
  <g transform="translate(16, 8)">
    <circle cx="-3" cy="-1" r="0.6" fill="#000000" stroke="#ffffff" stroke-width="0.6"/>
    <circle cx="3" cy="1" r="0.6" fill="#000000" stroke="#ffffff" stroke-width="0.6"/>
    <circle cx="2" cy="-1" r="0.4" fill="#000000" stroke="#ffffff" stroke-width="0.6"/>
  </g>
</svg>
