<svg width="80" height="80" viewBox="0 0 80 80" xmlns="http://www.w3.org/2000/svg">
  <!-- Outer protective ring with enhanced visibility -->
  <circle cx="40" cy="40" r="38" fill="none" stroke="#ffffff" stroke-width="3" opacity="0.9"/>
  <circle cx="40" cy="40" r="38" fill="none" stroke="#a4c639" stroke-width="2" opacity="0.8"/>
  
  <!-- Background circle for better contrast -->
  <circle cx="40" cy="40" r="35" fill="rgba(255,255,255,0.1)" stroke="rgba(255,255,255,0.2)" stroke-width="1"/>
  
  <defs>
    <linearGradient id="shieldGradientDark" x1="0%" y1="0%" x2="100%" y2="100%">
      <stop offset="0%" style="stop-color:#ffffff;stop-opacity:1" />
      <stop offset="50%" style="stop-color:#e6f3ff;stop-opacity:1" />
      <stop offset="100%" style="stop-color:#a4c639;stop-opacity:1" />
    </linearGradient>
    <linearGradient id="energyGradientDark" x1="0%" y1="0%" x2="100%" y2="100%">
      <stop offset="0%" style="stop-color:#ffffff;stop-opacity:1" />
      <stop offset="100%" style="stop-color:#a4c639;stop-opacity:1" />
    </linearGradient>
    <filter id="glow" x="-50%" y="-50%" width="200%" height="200%">
      <feGaussianBlur stdDeviation="2" result="coloredBlur"/>
      <feMerge> 
        <feMergeNode in="coloredBlur"/>
        <feMergeNode in="SourceGraphic"/>
      </feMerge>
    </filter>
  </defs>
  
  <!-- Shield shape with enhanced contrast -->
  <path d="M40 8 L55 15 L55 35 L40 55 L25 35 L25 15 Z" fill="url(#shieldGradientDark)" stroke="#ffffff" stroke-width="2.5" filter="url(#glow)"/>
  
  <!-- Inner shield for depth with white outline -->
  <path d="M40 12 L50 17 L50 32 L40 48 L30 32 L30 17 Z" fill="none" stroke="#ffffff" stroke-width="2" opacity="0.8"/>
  
  <!-- Renewable energy symbol with enhanced visibility -->
  <g transform="translate(40, 30)">
    <!-- Wind turbine blades with white highlights -->
    <path d="M0 -8 L-6 4 L6 4 Z" fill="url(#energyGradientDark)" opacity="0.95" stroke="#ffffff" stroke-width="0.5"/>
    <path d="M0 -8 L6 4 L0 8 L-6 4 Z" fill="url(#energyGradientDark)" opacity="0.8" stroke="#ffffff" stroke-width="0.5"/>
    <path d="M0 -8 L0 8 L-6 4 Z" fill="url(#energyGradientDark)" opacity="0.6" stroke="#ffffff" stroke-width="0.5"/>
    
    <!-- Central hub with white center -->
    <circle cx="0" cy="0" r="2" fill="#ffffff" stroke="#a4c639" stroke-width="1"/>
  </g>
  
  <!-- Electrical protection elements with white highlights -->
  <g transform="translate(40, 45)">
    <!-- Circuit protection symbol -->
    <rect x="-4" y="-2" width="8" height="4" fill="none" stroke="#ffffff" stroke-width="2" rx="1"/>
    <rect x="-4" y="-2" width="8" height="4" fill="none" stroke="#a4c639" stroke-width="1.5" rx="1"/>
    <line x1="-2" y1="-2" x2="-2" y2="2" stroke="#ffffff" stroke-width="1.5"/>
    <line x1="2" y1="-2" x2="2" y2="2" stroke="#ffffff" stroke-width="1.5"/>
    
    <!-- Connection points with white centers -->
    <circle cx="-6" cy="0" r="1.5" fill="#ffffff" stroke="#a4c639" stroke-width="1"/>
    <circle cx="6" cy="0" r="1.5" fill="#ffffff" stroke="#a4c639" stroke-width="1"/>
    <line x1="-5" y1="0" x2="-4" y2="0" stroke="#ffffff" stroke-width="1.5"/>
    <line x1="4" y1="0" x2="5" y2="0" stroke="#ffffff" stroke-width="1.5"/>
  </g>
  
  <!-- Australian identity element with enhanced visibility -->
  <g transform="translate(40, 20)" opacity="0.8">
    <circle cx="-8" cy="-3" r="1" fill="#ffffff" stroke="#a4c639" stroke-width="0.5"/>
    <circle cx="-4" cy="-1" r="0.8" fill="#ffffff" stroke="#a4c639" stroke-width="0.5"/>
    <circle cx="4" cy="1" r="0.8" fill="#ffffff" stroke="#a4c639" stroke-width="0.5"/>
    <circle cx="8" cy="3" r="1" fill="#ffffff" stroke="#a4c639" stroke-width="0.5"/>
    <circle cx="6" cy="-2" r="0.6" fill="#ffffff" stroke="#a4c639" stroke-width="0.5"/>
  </g>
</svg>
